%TF.GenerationSoftware,KiCad,Pcbnew,(6.0.5)*%
%TF.CreationDate,2023-03-12T20:27:36+02:00*%
%TF.ProjectId,rpi-cm4-base-carrier-rocket,7270692d-636d-4342-9d62-6173652d6361,v01*%
%TF.SameCoordinates,Original*%
%TF.FileFunction,Legend,Bot*%
%TF.FilePolarity,Positive*%
%FSLAX46Y46*%
G04 Gerber Fmt 4.6, Leading zero omitted, Abs format (unit mm)*
G04 Created by KiCad (PCBNEW (6.0.5)) date 2023-03-12 20:27:36*
%MOMM*%
%LPD*%
G01*
G04 APERTURE LIST*
%ADD10C,0.300000*%
%ADD11C,0.150000*%
%ADD12C,0.120000*%
G04 APERTURE END LIST*
D10*
X146954285Y-99878761D02*
X147620952Y-98926380D01*
X148097142Y-99878761D02*
X148097142Y-97878761D01*
X147335238Y-97878761D01*
X147144761Y-97974000D01*
X147049523Y-98069238D01*
X146954285Y-98259714D01*
X146954285Y-98545428D01*
X147049523Y-98735904D01*
X147144761Y-98831142D01*
X147335238Y-98926380D01*
X148097142Y-98926380D01*
X146097142Y-99878761D02*
X146097142Y-97878761D01*
X145335238Y-97878761D01*
X145144761Y-97974000D01*
X145049523Y-98069238D01*
X144954285Y-98259714D01*
X144954285Y-98545428D01*
X145049523Y-98735904D01*
X145144761Y-98831142D01*
X145335238Y-98926380D01*
X146097142Y-98926380D01*
X144097142Y-99878761D02*
X144097142Y-98545428D01*
X144097142Y-97878761D02*
X144192380Y-97974000D01*
X144097142Y-98069238D01*
X144001904Y-97974000D01*
X144097142Y-97878761D01*
X144097142Y-98069238D01*
X140478095Y-99688285D02*
X140573333Y-99783523D01*
X140859047Y-99878761D01*
X141049523Y-99878761D01*
X141335238Y-99783523D01*
X141525714Y-99593047D01*
X141620952Y-99402571D01*
X141716190Y-99021619D01*
X141716190Y-98735904D01*
X141620952Y-98354952D01*
X141525714Y-98164476D01*
X141335238Y-97974000D01*
X141049523Y-97878761D01*
X140859047Y-97878761D01*
X140573333Y-97974000D01*
X140478095Y-98069238D01*
X139620952Y-99878761D02*
X139620952Y-97878761D01*
X138954285Y-99307333D01*
X138287619Y-97878761D01*
X138287619Y-99878761D01*
X136478095Y-98545428D02*
X136478095Y-99878761D01*
X136954285Y-97783523D02*
X137430476Y-99212095D01*
X136192380Y-99212095D01*
X150525714Y-102051142D02*
X150240000Y-102146380D01*
X150144761Y-102241619D01*
X150049523Y-102432095D01*
X150049523Y-102717809D01*
X150144761Y-102908285D01*
X150240000Y-103003523D01*
X150430476Y-103098761D01*
X151192380Y-103098761D01*
X151192380Y-101098761D01*
X150525714Y-101098761D01*
X150335238Y-101194000D01*
X150240000Y-101289238D01*
X150144761Y-101479714D01*
X150144761Y-101670190D01*
X150240000Y-101860666D01*
X150335238Y-101955904D01*
X150525714Y-102051142D01*
X151192380Y-102051142D01*
X148335238Y-103098761D02*
X148335238Y-102051142D01*
X148430476Y-101860666D01*
X148620952Y-101765428D01*
X149001904Y-101765428D01*
X149192380Y-101860666D01*
X148335238Y-103003523D02*
X148525714Y-103098761D01*
X149001904Y-103098761D01*
X149192380Y-103003523D01*
X149287619Y-102813047D01*
X149287619Y-102622571D01*
X149192380Y-102432095D01*
X149001904Y-102336857D01*
X148525714Y-102336857D01*
X148335238Y-102241619D01*
X147478095Y-103003523D02*
X147287619Y-103098761D01*
X146906666Y-103098761D01*
X146716190Y-103003523D01*
X146620952Y-102813047D01*
X146620952Y-102717809D01*
X146716190Y-102527333D01*
X146906666Y-102432095D01*
X147192380Y-102432095D01*
X147382857Y-102336857D01*
X147478095Y-102146380D01*
X147478095Y-102051142D01*
X147382857Y-101860666D01*
X147192380Y-101765428D01*
X146906666Y-101765428D01*
X146716190Y-101860666D01*
X145001904Y-103003523D02*
X145192380Y-103098761D01*
X145573333Y-103098761D01*
X145763809Y-103003523D01*
X145859047Y-102813047D01*
X145859047Y-102051142D01*
X145763809Y-101860666D01*
X145573333Y-101765428D01*
X145192380Y-101765428D01*
X145001904Y-101860666D01*
X144906666Y-102051142D01*
X144906666Y-102241619D01*
X145859047Y-102432095D01*
X141382857Y-102908285D02*
X141478095Y-103003523D01*
X141763809Y-103098761D01*
X141954285Y-103098761D01*
X142240000Y-103003523D01*
X142430476Y-102813047D01*
X142525714Y-102622571D01*
X142620952Y-102241619D01*
X142620952Y-101955904D01*
X142525714Y-101574952D01*
X142430476Y-101384476D01*
X142240000Y-101194000D01*
X141954285Y-101098761D01*
X141763809Y-101098761D01*
X141478095Y-101194000D01*
X141382857Y-101289238D01*
X139668571Y-103098761D02*
X139668571Y-102051142D01*
X139763809Y-101860666D01*
X139954285Y-101765428D01*
X140335238Y-101765428D01*
X140525714Y-101860666D01*
X139668571Y-103003523D02*
X139859047Y-103098761D01*
X140335238Y-103098761D01*
X140525714Y-103003523D01*
X140620952Y-102813047D01*
X140620952Y-102622571D01*
X140525714Y-102432095D01*
X140335238Y-102336857D01*
X139859047Y-102336857D01*
X139668571Y-102241619D01*
X138716190Y-103098761D02*
X138716190Y-101765428D01*
X138716190Y-102146380D02*
X138620952Y-101955904D01*
X138525714Y-101860666D01*
X138335238Y-101765428D01*
X138144761Y-101765428D01*
X137478095Y-103098761D02*
X137478095Y-101765428D01*
X137478095Y-102146380D02*
X137382857Y-101955904D01*
X137287619Y-101860666D01*
X137097142Y-101765428D01*
X136906666Y-101765428D01*
X136240000Y-103098761D02*
X136240000Y-101765428D01*
X136240000Y-101098761D02*
X136335238Y-101194000D01*
X136240000Y-101289238D01*
X136144761Y-101194000D01*
X136240000Y-101098761D01*
X136240000Y-101289238D01*
X134525714Y-103003523D02*
X134716190Y-103098761D01*
X135097142Y-103098761D01*
X135287619Y-103003523D01*
X135382857Y-102813047D01*
X135382857Y-102051142D01*
X135287619Y-101860666D01*
X135097142Y-101765428D01*
X134716190Y-101765428D01*
X134525714Y-101860666D01*
X134430476Y-102051142D01*
X134430476Y-102241619D01*
X135382857Y-102432095D01*
X133573333Y-103098761D02*
X133573333Y-101765428D01*
X133573333Y-102146380D02*
X133478095Y-101955904D01*
X133382857Y-101860666D01*
X133192380Y-101765428D01*
X133001904Y-101765428D01*
D11*
X157326476Y-79587714D02*
X157088380Y-80254380D01*
X156850285Y-79587714D01*
X156278857Y-79254380D02*
X156183619Y-79254380D01*
X156088380Y-79302000D01*
X156040761Y-79349619D01*
X155993142Y-79444857D01*
X155945523Y-79635333D01*
X155945523Y-79873428D01*
X155993142Y-80063904D01*
X156040761Y-80159142D01*
X156088380Y-80206761D01*
X156183619Y-80254380D01*
X156278857Y-80254380D01*
X156374095Y-80206761D01*
X156421714Y-80159142D01*
X156469333Y-80063904D01*
X156516952Y-79873428D01*
X156516952Y-79635333D01*
X156469333Y-79444857D01*
X156421714Y-79349619D01*
X156374095Y-79302000D01*
X156278857Y-79254380D01*
X154993142Y-80254380D02*
X155564571Y-80254380D01*
X155278857Y-80254380D02*
X155278857Y-79254380D01*
X155374095Y-79397238D01*
X155469333Y-79492476D01*
X155564571Y-79540095D01*
%TO.C,J4*%
X115395333Y-118280380D02*
X115395333Y-118994666D01*
X115442952Y-119137523D01*
X115538190Y-119232761D01*
X115681047Y-119280380D01*
X115776285Y-119280380D01*
X114490571Y-118613714D02*
X114490571Y-119280380D01*
X114728666Y-118232761D02*
X114966761Y-118947047D01*
X114347714Y-118947047D01*
X112076666Y-119461333D02*
X111376666Y-119461333D01*
X111376666Y-119628000D01*
X111410000Y-119728000D01*
X111476666Y-119794666D01*
X111543333Y-119828000D01*
X111676666Y-119861333D01*
X111776666Y-119861333D01*
X111910000Y-119828000D01*
X111976666Y-119794666D01*
X112043333Y-119728000D01*
X112076666Y-119628000D01*
X112076666Y-119461333D01*
X112043333Y-120428000D02*
X112076666Y-120361333D01*
X112076666Y-120228000D01*
X112043333Y-120161333D01*
X111976666Y-120128000D01*
X111710000Y-120128000D01*
X111643333Y-120161333D01*
X111610000Y-120228000D01*
X111610000Y-120361333D01*
X111643333Y-120428000D01*
X111710000Y-120461333D01*
X111776666Y-120461333D01*
X111843333Y-120128000D01*
X111610000Y-120661333D02*
X111610000Y-120928000D01*
X111376666Y-120761333D02*
X111976666Y-120761333D01*
X112043333Y-120794666D01*
X112076666Y-120861333D01*
X112076666Y-120928000D01*
X112076666Y-121261333D02*
X112043333Y-121194666D01*
X112010000Y-121161333D01*
X111943333Y-121128000D01*
X111743333Y-121128000D01*
X111676666Y-121161333D01*
X111643333Y-121194666D01*
X111610000Y-121261333D01*
X111610000Y-121361333D01*
X111643333Y-121428000D01*
X111676666Y-121461333D01*
X111743333Y-121494666D01*
X111943333Y-121494666D01*
X112010000Y-121461333D01*
X112043333Y-121428000D01*
X112076666Y-121361333D01*
X112076666Y-121261333D01*
X111610000Y-121794666D02*
X112076666Y-121794666D01*
X111676666Y-121794666D02*
X111643333Y-121828000D01*
X111610000Y-121894666D01*
X111610000Y-121994666D01*
X111643333Y-122061333D01*
X111710000Y-122094666D01*
X112076666Y-122094666D01*
X112076666Y-122728000D02*
X111710000Y-122728000D01*
X111643333Y-122694666D01*
X111610000Y-122628000D01*
X111610000Y-122494666D01*
X111643333Y-122428000D01*
X112043333Y-122728000D02*
X112076666Y-122661333D01*
X112076666Y-122494666D01*
X112043333Y-122428000D01*
X111976666Y-122394666D01*
X111910000Y-122394666D01*
X111843333Y-122428000D01*
X111810000Y-122494666D01*
X111810000Y-122661333D01*
X111776666Y-122728000D01*
X111610000Y-122961333D02*
X111610000Y-123228000D01*
X111376666Y-123061333D02*
X111976666Y-123061333D01*
X112043333Y-123094666D01*
X112076666Y-123161333D01*
X112076666Y-123228000D01*
X112076666Y-123561333D02*
X112043333Y-123494666D01*
X112010000Y-123461333D01*
X111943333Y-123428000D01*
X111743333Y-123428000D01*
X111676666Y-123461333D01*
X111643333Y-123494666D01*
X111610000Y-123561333D01*
X111610000Y-123661333D01*
X111643333Y-123728000D01*
X111676666Y-123761333D01*
X111743333Y-123794666D01*
X111943333Y-123794666D01*
X112010000Y-123761333D01*
X112043333Y-123728000D01*
X112076666Y-123661333D01*
X112076666Y-123561333D01*
X112076666Y-124094666D02*
X111610000Y-124094666D01*
X111743333Y-124094666D02*
X111676666Y-124128000D01*
X111643333Y-124161333D01*
X111610000Y-124228000D01*
X111610000Y-124294666D01*
X112076666Y-125428000D02*
X112076666Y-125028000D01*
X112076666Y-125228000D02*
X111376666Y-125228000D01*
X111476666Y-125161333D01*
X111543333Y-125094666D01*
X111576666Y-125028000D01*
%TO.C,J2*%
X167465333Y-127375380D02*
X167465333Y-128089666D01*
X167512952Y-128232523D01*
X167608190Y-128327761D01*
X167751047Y-128375380D01*
X167846285Y-128375380D01*
X167036761Y-127470619D02*
X166989142Y-127423000D01*
X166893904Y-127375380D01*
X166655809Y-127375380D01*
X166560571Y-127423000D01*
X166512952Y-127470619D01*
X166465333Y-127565857D01*
X166465333Y-127661095D01*
X166512952Y-127803952D01*
X167084380Y-128375380D01*
X166465333Y-128375380D01*
X171560571Y-115095380D02*
X170989142Y-115095380D01*
X171274857Y-116095380D02*
X171274857Y-115095380D01*
X170227238Y-116095380D02*
X170227238Y-115571571D01*
X170274857Y-115476333D01*
X170370095Y-115428714D01*
X170560571Y-115428714D01*
X170655809Y-115476333D01*
X170227238Y-116047761D02*
X170322476Y-116095380D01*
X170560571Y-116095380D01*
X170655809Y-116047761D01*
X170703428Y-115952523D01*
X170703428Y-115857285D01*
X170655809Y-115762047D01*
X170560571Y-115714428D01*
X170322476Y-115714428D01*
X170227238Y-115666809D01*
X169751047Y-116095380D02*
X169751047Y-115428714D01*
X169751047Y-115523952D02*
X169703428Y-115476333D01*
X169608190Y-115428714D01*
X169465333Y-115428714D01*
X169370095Y-115476333D01*
X169322476Y-115571571D01*
X169322476Y-116095380D01*
X169322476Y-115571571D02*
X169274857Y-115476333D01*
X169179619Y-115428714D01*
X169036761Y-115428714D01*
X168941523Y-115476333D01*
X168893904Y-115571571D01*
X168893904Y-116095380D01*
X168417714Y-116095380D02*
X168417714Y-115428714D01*
X168417714Y-115095380D02*
X168465333Y-115143000D01*
X168417714Y-115190619D01*
X168370095Y-115143000D01*
X168417714Y-115095380D01*
X168417714Y-115190619D01*
X167941523Y-116095380D02*
X167941523Y-115428714D01*
X167941523Y-115619190D02*
X167893904Y-115523952D01*
X167846285Y-115476333D01*
X167751047Y-115428714D01*
X167655809Y-115428714D01*
X165989142Y-116095380D02*
X166322476Y-115619190D01*
X166560571Y-116095380D02*
X166560571Y-115095380D01*
X166179619Y-115095380D01*
X166084380Y-115143000D01*
X166036761Y-115190619D01*
X165989142Y-115285857D01*
X165989142Y-115428714D01*
X166036761Y-115523952D01*
X166084380Y-115571571D01*
X166179619Y-115619190D01*
X166560571Y-115619190D01*
X165132000Y-116095380D02*
X165132000Y-115571571D01*
X165179619Y-115476333D01*
X165274857Y-115428714D01*
X165465333Y-115428714D01*
X165560571Y-115476333D01*
X165132000Y-116047761D02*
X165227238Y-116095380D01*
X165465333Y-116095380D01*
X165560571Y-116047761D01*
X165608190Y-115952523D01*
X165608190Y-115857285D01*
X165560571Y-115762047D01*
X165465333Y-115714428D01*
X165227238Y-115714428D01*
X165132000Y-115666809D01*
X164227238Y-116095380D02*
X164227238Y-115095380D01*
X164227238Y-116047761D02*
X164322476Y-116095380D01*
X164512952Y-116095380D01*
X164608190Y-116047761D01*
X164655809Y-116000142D01*
X164703428Y-115904904D01*
X164703428Y-115619190D01*
X164655809Y-115523952D01*
X164608190Y-115476333D01*
X164512952Y-115428714D01*
X164322476Y-115428714D01*
X164227238Y-115476333D01*
X163751047Y-116095380D02*
X163751047Y-115428714D01*
X163751047Y-115095380D02*
X163798666Y-115143000D01*
X163751047Y-115190619D01*
X163703428Y-115143000D01*
X163751047Y-115095380D01*
X163751047Y-115190619D01*
X163132000Y-116095380D02*
X163227238Y-116047761D01*
X163274857Y-116000142D01*
X163322476Y-115904904D01*
X163322476Y-115619190D01*
X163274857Y-115523952D01*
X163227238Y-115476333D01*
X163132000Y-115428714D01*
X162989142Y-115428714D01*
X162893904Y-115476333D01*
X162846285Y-115523952D01*
X162798666Y-115619190D01*
X162798666Y-115904904D01*
X162846285Y-116000142D01*
X162893904Y-116047761D01*
X162989142Y-116095380D01*
X163132000Y-116095380D01*
%TO.C,J3*%
X153241333Y-133520380D02*
X153241333Y-134234666D01*
X153288952Y-134377523D01*
X153384190Y-134472761D01*
X153527047Y-134520380D01*
X153622285Y-134520380D01*
X152860380Y-133520380D02*
X152241333Y-133520380D01*
X152574666Y-133901333D01*
X152431809Y-133901333D01*
X152336571Y-133948952D01*
X152288952Y-133996571D01*
X152241333Y-134091809D01*
X152241333Y-134329904D01*
X152288952Y-134425142D01*
X152336571Y-134472761D01*
X152431809Y-134520380D01*
X152717523Y-134520380D01*
X152812761Y-134472761D01*
X152860380Y-134425142D01*
X150651333Y-135884000D02*
X150684666Y-135950666D01*
X150684666Y-136084000D01*
X150651333Y-136150666D01*
X150584666Y-136184000D01*
X150551333Y-136184000D01*
X150484666Y-136150666D01*
X150451333Y-136084000D01*
X150451333Y-135984000D01*
X150418000Y-135917333D01*
X150351333Y-135884000D01*
X150318000Y-135884000D01*
X150251333Y-135917333D01*
X150218000Y-135984000D01*
X150218000Y-136084000D01*
X150251333Y-136150666D01*
X150218000Y-136484000D02*
X150918000Y-136484000D01*
X150251333Y-136484000D02*
X150218000Y-136550666D01*
X150218000Y-136684000D01*
X150251333Y-136750666D01*
X150284666Y-136784000D01*
X150351333Y-136817333D01*
X150551333Y-136817333D01*
X150618000Y-136784000D01*
X150651333Y-136750666D01*
X150684666Y-136684000D01*
X150684666Y-136550666D01*
X150651333Y-136484000D01*
X150684666Y-137417333D02*
X150318000Y-137417333D01*
X150251333Y-137384000D01*
X150218000Y-137317333D01*
X150218000Y-137184000D01*
X150251333Y-137117333D01*
X150651333Y-137417333D02*
X150684666Y-137350666D01*
X150684666Y-137184000D01*
X150651333Y-137117333D01*
X150584666Y-137084000D01*
X150518000Y-137084000D01*
X150451333Y-137117333D01*
X150418000Y-137184000D01*
X150418000Y-137350666D01*
X150384666Y-137417333D01*
X150684666Y-137750666D02*
X150218000Y-137750666D01*
X150351333Y-137750666D02*
X150284666Y-137784000D01*
X150251333Y-137817333D01*
X150218000Y-137884000D01*
X150218000Y-137950666D01*
X150651333Y-138450666D02*
X150684666Y-138384000D01*
X150684666Y-138250666D01*
X150651333Y-138184000D01*
X150584666Y-138150666D01*
X150318000Y-138150666D01*
X150251333Y-138184000D01*
X150218000Y-138250666D01*
X150218000Y-138384000D01*
X150251333Y-138450666D01*
X150318000Y-138484000D01*
X150384666Y-138484000D01*
X150451333Y-138150666D01*
X150018000Y-139684000D02*
X149984666Y-139617333D01*
X149984666Y-139517333D01*
X150018000Y-139417333D01*
X150084666Y-139350666D01*
X150151333Y-139317333D01*
X150284666Y-139284000D01*
X150384666Y-139284000D01*
X150518000Y-139317333D01*
X150584666Y-139350666D01*
X150651333Y-139417333D01*
X150684666Y-139517333D01*
X150684666Y-139584000D01*
X150651333Y-139684000D01*
X150618000Y-139717333D01*
X150384666Y-139717333D01*
X150384666Y-139584000D01*
X150684666Y-140017333D02*
X149984666Y-140017333D01*
X149984666Y-140284000D01*
X150018000Y-140350666D01*
X150051333Y-140384000D01*
X150118000Y-140417333D01*
X150218000Y-140417333D01*
X150284666Y-140384000D01*
X150318000Y-140350666D01*
X150351333Y-140284000D01*
X150351333Y-140017333D01*
X150684666Y-140717333D02*
X149984666Y-140717333D01*
X149984666Y-141184000D02*
X149984666Y-141317333D01*
X150018000Y-141384000D01*
X150084666Y-141450666D01*
X150218000Y-141484000D01*
X150451333Y-141484000D01*
X150584666Y-141450666D01*
X150651333Y-141384000D01*
X150684666Y-141317333D01*
X150684666Y-141184000D01*
X150651333Y-141117333D01*
X150584666Y-141050666D01*
X150451333Y-141017333D01*
X150218000Y-141017333D01*
X150084666Y-141050666D01*
X150018000Y-141117333D01*
X149984666Y-141184000D01*
%TO.C,J19*%
X122221523Y-118280380D02*
X122221523Y-118994666D01*
X122269142Y-119137523D01*
X122364380Y-119232761D01*
X122507238Y-119280380D01*
X122602476Y-119280380D01*
X121221523Y-119280380D02*
X121792952Y-119280380D01*
X121507238Y-119280380D02*
X121507238Y-118280380D01*
X121602476Y-118423238D01*
X121697714Y-118518476D01*
X121792952Y-118566095D01*
X120745333Y-119280380D02*
X120554857Y-119280380D01*
X120459619Y-119232761D01*
X120412000Y-119185142D01*
X120316761Y-119042285D01*
X120269142Y-118851809D01*
X120269142Y-118470857D01*
X120316761Y-118375619D01*
X120364380Y-118328000D01*
X120459619Y-118280380D01*
X120650095Y-118280380D01*
X120745333Y-118328000D01*
X120792952Y-118375619D01*
X120840571Y-118470857D01*
X120840571Y-118708952D01*
X120792952Y-118804190D01*
X120745333Y-118851809D01*
X120650095Y-118899428D01*
X120459619Y-118899428D01*
X120364380Y-118851809D01*
X120316761Y-118804190D01*
X120269142Y-118708952D01*
X118680666Y-116786000D02*
X117980666Y-116786000D01*
X117980666Y-116952666D01*
X118014000Y-117052666D01*
X118080666Y-117119333D01*
X118147333Y-117152666D01*
X118280666Y-117186000D01*
X118380666Y-117186000D01*
X118514000Y-117152666D01*
X118580666Y-117119333D01*
X118647333Y-117052666D01*
X118680666Y-116952666D01*
X118680666Y-116786000D01*
X118647333Y-117752666D02*
X118680666Y-117686000D01*
X118680666Y-117552666D01*
X118647333Y-117486000D01*
X118580666Y-117452666D01*
X118314000Y-117452666D01*
X118247333Y-117486000D01*
X118214000Y-117552666D01*
X118214000Y-117686000D01*
X118247333Y-117752666D01*
X118314000Y-117786000D01*
X118380666Y-117786000D01*
X118447333Y-117452666D01*
X118214000Y-117986000D02*
X118214000Y-118252666D01*
X117980666Y-118086000D02*
X118580666Y-118086000D01*
X118647333Y-118119333D01*
X118680666Y-118186000D01*
X118680666Y-118252666D01*
X118680666Y-118586000D02*
X118647333Y-118519333D01*
X118614000Y-118486000D01*
X118547333Y-118452666D01*
X118347333Y-118452666D01*
X118280666Y-118486000D01*
X118247333Y-118519333D01*
X118214000Y-118586000D01*
X118214000Y-118686000D01*
X118247333Y-118752666D01*
X118280666Y-118786000D01*
X118347333Y-118819333D01*
X118547333Y-118819333D01*
X118614000Y-118786000D01*
X118647333Y-118752666D01*
X118680666Y-118686000D01*
X118680666Y-118586000D01*
X118214000Y-119119333D02*
X118680666Y-119119333D01*
X118280666Y-119119333D02*
X118247333Y-119152666D01*
X118214000Y-119219333D01*
X118214000Y-119319333D01*
X118247333Y-119386000D01*
X118314000Y-119419333D01*
X118680666Y-119419333D01*
X118680666Y-120052666D02*
X118314000Y-120052666D01*
X118247333Y-120019333D01*
X118214000Y-119952666D01*
X118214000Y-119819333D01*
X118247333Y-119752666D01*
X118647333Y-120052666D02*
X118680666Y-119986000D01*
X118680666Y-119819333D01*
X118647333Y-119752666D01*
X118580666Y-119719333D01*
X118514000Y-119719333D01*
X118447333Y-119752666D01*
X118414000Y-119819333D01*
X118414000Y-119986000D01*
X118380666Y-120052666D01*
X118214000Y-120286000D02*
X118214000Y-120552666D01*
X117980666Y-120386000D02*
X118580666Y-120386000D01*
X118647333Y-120419333D01*
X118680666Y-120486000D01*
X118680666Y-120552666D01*
X118680666Y-120886000D02*
X118647333Y-120819333D01*
X118614000Y-120786000D01*
X118547333Y-120752666D01*
X118347333Y-120752666D01*
X118280666Y-120786000D01*
X118247333Y-120819333D01*
X118214000Y-120886000D01*
X118214000Y-120986000D01*
X118247333Y-121052666D01*
X118280666Y-121086000D01*
X118347333Y-121119333D01*
X118547333Y-121119333D01*
X118614000Y-121086000D01*
X118647333Y-121052666D01*
X118680666Y-120986000D01*
X118680666Y-120886000D01*
X118680666Y-121419333D02*
X118214000Y-121419333D01*
X118347333Y-121419333D02*
X118280666Y-121452666D01*
X118247333Y-121486000D01*
X118214000Y-121552666D01*
X118214000Y-121619333D01*
X118647333Y-122352666D02*
X118680666Y-122419333D01*
X118680666Y-122552666D01*
X118647333Y-122619333D01*
X118580666Y-122652666D01*
X118547333Y-122652666D01*
X118480666Y-122619333D01*
X118447333Y-122552666D01*
X118447333Y-122452666D01*
X118414000Y-122386000D01*
X118347333Y-122352666D01*
X118314000Y-122352666D01*
X118247333Y-122386000D01*
X118214000Y-122452666D01*
X118214000Y-122552666D01*
X118247333Y-122619333D01*
X118647333Y-123219333D02*
X118680666Y-123152666D01*
X118680666Y-123019333D01*
X118647333Y-122952666D01*
X118580666Y-122919333D01*
X118314000Y-122919333D01*
X118247333Y-122952666D01*
X118214000Y-123019333D01*
X118214000Y-123152666D01*
X118247333Y-123219333D01*
X118314000Y-123252666D01*
X118380666Y-123252666D01*
X118447333Y-122919333D01*
X118647333Y-123852666D02*
X118680666Y-123786000D01*
X118680666Y-123652666D01*
X118647333Y-123586000D01*
X118614000Y-123552666D01*
X118547333Y-123519333D01*
X118347333Y-123519333D01*
X118280666Y-123552666D01*
X118247333Y-123586000D01*
X118214000Y-123652666D01*
X118214000Y-123786000D01*
X118247333Y-123852666D01*
X118680666Y-124252666D02*
X118647333Y-124186000D01*
X118614000Y-124152666D01*
X118547333Y-124119333D01*
X118347333Y-124119333D01*
X118280666Y-124152666D01*
X118247333Y-124186000D01*
X118214000Y-124252666D01*
X118214000Y-124352666D01*
X118247333Y-124419333D01*
X118280666Y-124452666D01*
X118347333Y-124486000D01*
X118547333Y-124486000D01*
X118614000Y-124452666D01*
X118647333Y-124419333D01*
X118680666Y-124352666D01*
X118680666Y-124252666D01*
X118214000Y-124786000D02*
X118680666Y-124786000D01*
X118280666Y-124786000D02*
X118247333Y-124819333D01*
X118214000Y-124886000D01*
X118214000Y-124986000D01*
X118247333Y-125052666D01*
X118314000Y-125086000D01*
X118680666Y-125086000D01*
X118680666Y-125719333D02*
X117980666Y-125719333D01*
X118647333Y-125719333D02*
X118680666Y-125652666D01*
X118680666Y-125519333D01*
X118647333Y-125452666D01*
X118614000Y-125419333D01*
X118547333Y-125386000D01*
X118347333Y-125386000D01*
X118280666Y-125419333D01*
X118247333Y-125452666D01*
X118214000Y-125519333D01*
X118214000Y-125652666D01*
X118247333Y-125719333D01*
X118647333Y-126552666D02*
X118680666Y-126619333D01*
X118680666Y-126752666D01*
X118647333Y-126819333D01*
X118580666Y-126852666D01*
X118547333Y-126852666D01*
X118480666Y-126819333D01*
X118447333Y-126752666D01*
X118447333Y-126652666D01*
X118414000Y-126586000D01*
X118347333Y-126552666D01*
X118314000Y-126552666D01*
X118247333Y-126586000D01*
X118214000Y-126652666D01*
X118214000Y-126752666D01*
X118247333Y-126819333D01*
X118214000Y-127052666D02*
X118214000Y-127319333D01*
X117980666Y-127152666D02*
X118580666Y-127152666D01*
X118647333Y-127186000D01*
X118680666Y-127252666D01*
X118680666Y-127319333D01*
X118680666Y-127852666D02*
X118314000Y-127852666D01*
X118247333Y-127819333D01*
X118214000Y-127752666D01*
X118214000Y-127619333D01*
X118247333Y-127552666D01*
X118647333Y-127852666D02*
X118680666Y-127786000D01*
X118680666Y-127619333D01*
X118647333Y-127552666D01*
X118580666Y-127519333D01*
X118514000Y-127519333D01*
X118447333Y-127552666D01*
X118414000Y-127619333D01*
X118414000Y-127786000D01*
X118380666Y-127852666D01*
X118214000Y-128486000D02*
X118780666Y-128486000D01*
X118847333Y-128452666D01*
X118880666Y-128419333D01*
X118914000Y-128352666D01*
X118914000Y-128252666D01*
X118880666Y-128186000D01*
X118647333Y-128486000D02*
X118680666Y-128419333D01*
X118680666Y-128286000D01*
X118647333Y-128219333D01*
X118614000Y-128186000D01*
X118547333Y-128152666D01*
X118347333Y-128152666D01*
X118280666Y-128186000D01*
X118247333Y-128219333D01*
X118214000Y-128286000D01*
X118214000Y-128419333D01*
X118247333Y-128486000D01*
X118647333Y-129086000D02*
X118680666Y-129019333D01*
X118680666Y-128886000D01*
X118647333Y-128819333D01*
X118580666Y-128786000D01*
X118314000Y-128786000D01*
X118247333Y-128819333D01*
X118214000Y-128886000D01*
X118214000Y-129019333D01*
X118247333Y-129086000D01*
X118314000Y-129119333D01*
X118380666Y-129119333D01*
X118447333Y-128786000D01*
%TO.C,J17*%
X109267523Y-118275380D02*
X109267523Y-118989666D01*
X109315142Y-119132523D01*
X109410380Y-119227761D01*
X109553238Y-119275380D01*
X109648476Y-119275380D01*
X108267523Y-119275380D02*
X108838952Y-119275380D01*
X108553238Y-119275380D02*
X108553238Y-118275380D01*
X108648476Y-118418238D01*
X108743714Y-118513476D01*
X108838952Y-118561095D01*
X107934190Y-118275380D02*
X107267523Y-118275380D01*
X107696095Y-119275380D01*
X105980666Y-119461333D02*
X105280666Y-119461333D01*
X105280666Y-119628000D01*
X105314000Y-119728000D01*
X105380666Y-119794666D01*
X105447333Y-119828000D01*
X105580666Y-119861333D01*
X105680666Y-119861333D01*
X105814000Y-119828000D01*
X105880666Y-119794666D01*
X105947333Y-119728000D01*
X105980666Y-119628000D01*
X105980666Y-119461333D01*
X105947333Y-120428000D02*
X105980666Y-120361333D01*
X105980666Y-120228000D01*
X105947333Y-120161333D01*
X105880666Y-120128000D01*
X105614000Y-120128000D01*
X105547333Y-120161333D01*
X105514000Y-120228000D01*
X105514000Y-120361333D01*
X105547333Y-120428000D01*
X105614000Y-120461333D01*
X105680666Y-120461333D01*
X105747333Y-120128000D01*
X105514000Y-120661333D02*
X105514000Y-120928000D01*
X105280666Y-120761333D02*
X105880666Y-120761333D01*
X105947333Y-120794666D01*
X105980666Y-120861333D01*
X105980666Y-120928000D01*
X105980666Y-121261333D02*
X105947333Y-121194666D01*
X105914000Y-121161333D01*
X105847333Y-121128000D01*
X105647333Y-121128000D01*
X105580666Y-121161333D01*
X105547333Y-121194666D01*
X105514000Y-121261333D01*
X105514000Y-121361333D01*
X105547333Y-121428000D01*
X105580666Y-121461333D01*
X105647333Y-121494666D01*
X105847333Y-121494666D01*
X105914000Y-121461333D01*
X105947333Y-121428000D01*
X105980666Y-121361333D01*
X105980666Y-121261333D01*
X105514000Y-121794666D02*
X105980666Y-121794666D01*
X105580666Y-121794666D02*
X105547333Y-121828000D01*
X105514000Y-121894666D01*
X105514000Y-121994666D01*
X105547333Y-122061333D01*
X105614000Y-122094666D01*
X105980666Y-122094666D01*
X105980666Y-122728000D02*
X105614000Y-122728000D01*
X105547333Y-122694666D01*
X105514000Y-122628000D01*
X105514000Y-122494666D01*
X105547333Y-122428000D01*
X105947333Y-122728000D02*
X105980666Y-122661333D01*
X105980666Y-122494666D01*
X105947333Y-122428000D01*
X105880666Y-122394666D01*
X105814000Y-122394666D01*
X105747333Y-122428000D01*
X105714000Y-122494666D01*
X105714000Y-122661333D01*
X105680666Y-122728000D01*
X105514000Y-122961333D02*
X105514000Y-123228000D01*
X105280666Y-123061333D02*
X105880666Y-123061333D01*
X105947333Y-123094666D01*
X105980666Y-123161333D01*
X105980666Y-123228000D01*
X105980666Y-123561333D02*
X105947333Y-123494666D01*
X105914000Y-123461333D01*
X105847333Y-123428000D01*
X105647333Y-123428000D01*
X105580666Y-123461333D01*
X105547333Y-123494666D01*
X105514000Y-123561333D01*
X105514000Y-123661333D01*
X105547333Y-123728000D01*
X105580666Y-123761333D01*
X105647333Y-123794666D01*
X105847333Y-123794666D01*
X105914000Y-123761333D01*
X105947333Y-123728000D01*
X105980666Y-123661333D01*
X105980666Y-123561333D01*
X105980666Y-124094666D02*
X105514000Y-124094666D01*
X105647333Y-124094666D02*
X105580666Y-124128000D01*
X105547333Y-124161333D01*
X105514000Y-124228000D01*
X105514000Y-124294666D01*
X105280666Y-124994666D02*
X105280666Y-125428000D01*
X105547333Y-125194666D01*
X105547333Y-125294666D01*
X105580666Y-125361333D01*
X105614000Y-125394666D01*
X105680666Y-125428000D01*
X105847333Y-125428000D01*
X105914000Y-125394666D01*
X105947333Y-125361333D01*
X105980666Y-125294666D01*
X105980666Y-125094666D01*
X105947333Y-125028000D01*
X105914000Y-124994666D01*
D12*
%TO.C,J4*%
X116392000Y-125028000D02*
X113732000Y-125028000D01*
X116392000Y-119828000D02*
X115062000Y-119828000D01*
X116392000Y-122428000D02*
X116392000Y-125028000D01*
X116392000Y-121158000D02*
X116392000Y-119828000D01*
X116392000Y-122428000D02*
X113732000Y-122428000D01*
X113732000Y-122428000D02*
X113732000Y-125028000D01*
%TO.C,J2*%
X165802000Y-126923000D02*
X167132000Y-126923000D01*
X165802000Y-116643000D02*
X168462000Y-116643000D01*
X168462000Y-124323000D02*
X168462000Y-116643000D01*
X165802000Y-124323000D02*
X168462000Y-124323000D01*
X165802000Y-125593000D02*
X165802000Y-126923000D01*
X165802000Y-124323000D02*
X165802000Y-116643000D01*
%TO.C,J3*%
X154238000Y-137668000D02*
X151578000Y-137668000D01*
X154238000Y-137668000D02*
X154238000Y-142808000D01*
X154238000Y-135068000D02*
X152908000Y-135068000D01*
X154238000Y-136398000D02*
X154238000Y-135068000D01*
X154238000Y-142808000D02*
X151578000Y-142808000D01*
X151578000Y-137668000D02*
X151578000Y-142808000D01*
%TO.C,J19*%
X122742000Y-125028000D02*
X120082000Y-125028000D01*
X122742000Y-121158000D02*
X122742000Y-119828000D01*
X122742000Y-122428000D02*
X120082000Y-122428000D01*
X122742000Y-122428000D02*
X122742000Y-125028000D01*
X122742000Y-119828000D02*
X121412000Y-119828000D01*
X120082000Y-122428000D02*
X120082000Y-125028000D01*
%TO.C,J17*%
X109788000Y-122423000D02*
X107128000Y-122423000D01*
X109788000Y-119823000D02*
X108458000Y-119823000D01*
X109788000Y-121153000D02*
X109788000Y-119823000D01*
X109788000Y-125023000D02*
X107128000Y-125023000D01*
X107128000Y-122423000D02*
X107128000Y-125023000D01*
X109788000Y-122423000D02*
X109788000Y-125023000D01*
%TD*%
M02*
