%TF.GenerationSoftware,KiCad,Pcbnew,(6.0.5)*%
%TF.CreationDate,2023-03-12T20:27:36+02:00*%
%TF.ProjectId,rpi-cm4-base-carrier-rocket,7270692d-636d-4342-9d62-6173652d6361,v01*%
%TF.SameCoordinates,Original*%
%TF.FileFunction,Soldermask,Top*%
%TF.FilePolarity,Negative*%
%FSLAX46Y46*%
G04 Gerber Fmt 4.6, Leading zero omitted, Abs format (unit mm)*
G04 Created by KiCad (PCBNEW (6.0.5)) date 2023-03-12 20:27:36*
%MOMM*%
%LPD*%
G01*
G04 APERTURE LIST*
G04 Aperture macros list*
%AMRoundRect*
0 Rectangle with rounded corners*
0 $1 Rounding radius*
0 $2 $3 $4 $5 $6 $7 $8 $9 X,Y pos of 4 corners*
0 Add a 4 corners polygon primitive as box body*
4,1,4,$2,$3,$4,$5,$6,$7,$8,$9,$2,$3,0*
0 Add four circle primitives for the rounded corners*
1,1,$1+$1,$2,$3*
1,1,$1+$1,$4,$5*
1,1,$1+$1,$6,$7*
1,1,$1+$1,$8,$9*
0 Add four rect primitives between the rounded corners*
20,1,$1+$1,$2,$3,$4,$5,0*
20,1,$1+$1,$4,$5,$6,$7,0*
20,1,$1+$1,$6,$7,$8,$9,0*
20,1,$1+$1,$8,$9,$2,$3,0*%
G04 Aperture macros list end*
%ADD10R,1.700000X1.700000*%
%ADD11O,1.700000X1.700000*%
%ADD12C,2.000000*%
%ADD13RoundRect,0.218750X0.256250X-0.218750X0.256250X0.218750X-0.256250X0.218750X-0.256250X-0.218750X0*%
%ADD14RoundRect,0.237500X0.237500X-0.250000X0.237500X0.250000X-0.237500X0.250000X-0.237500X-0.250000X0*%
%ADD15RoundRect,0.225000X0.225000X0.250000X-0.225000X0.250000X-0.225000X-0.250000X0.225000X-0.250000X0*%
%ADD16R,0.650000X0.400000*%
%ADD17RoundRect,0.225000X0.250000X-0.225000X0.250000X0.225000X-0.250000X0.225000X-0.250000X-0.225000X0*%
%ADD18C,1.700000*%
%ADD19C,6.100000*%
%ADD20R,0.700000X0.200000*%
G04 APERTURE END LIST*
D10*
%TO.C,J12*%
X111379000Y-72898000D03*
D11*
X113919000Y-72898000D03*
X116459000Y-72898000D03*
X118999000Y-72898000D03*
X121539000Y-72898000D03*
X124079000Y-72898000D03*
%TD*%
D10*
%TO.C,J6*%
X134162800Y-63322200D03*
D11*
X134162800Y-65862200D03*
X134162800Y-68402200D03*
X134162800Y-70942200D03*
X134162800Y-73482200D03*
X134162800Y-76022200D03*
%TD*%
D12*
%TO.C,REF\u002A\u002A*%
X172200000Y-130600000D03*
%TD*%
D10*
%TO.C,J1*%
X170434000Y-103632000D03*
D11*
X170434000Y-106172000D03*
X170434000Y-108712000D03*
X170434000Y-111252000D03*
X170434000Y-113792000D03*
%TD*%
D10*
%TO.C,J7*%
X129032000Y-142479000D03*
D11*
X129032000Y-139939000D03*
X129032000Y-137399000D03*
%TD*%
D10*
%TO.C,J5*%
X129336800Y-63322200D03*
D11*
X129336800Y-65862200D03*
X129336800Y-68402200D03*
X129336800Y-70942200D03*
X129336800Y-73482200D03*
X129336800Y-76022200D03*
%TD*%
D13*
%TO.C,D2*%
X148209000Y-71780500D03*
X148209000Y-70205500D03*
%TD*%
D10*
%TO.C,J15*%
X108458000Y-128778000D03*
D11*
X110998000Y-128778000D03*
X113538000Y-128778000D03*
X116078000Y-128778000D03*
X118618000Y-128778000D03*
X121158000Y-128778000D03*
%TD*%
D14*
%TO.C,R1*%
X152908000Y-66976000D03*
X152908000Y-65151000D03*
%TD*%
D15*
%TO.C,C_puff1*%
X184150000Y-93472000D03*
X182600000Y-93472000D03*
%TD*%
D10*
%TO.C,J11*%
X133604000Y-142479000D03*
D11*
X133604000Y-139939000D03*
X133604000Y-137399000D03*
%TD*%
D13*
%TO.C,D1*%
X153035000Y-71780500D03*
X153035000Y-70205500D03*
%TD*%
D16*
%TO.C,U1*%
X148910000Y-60056000D03*
X148910000Y-60706000D03*
X148910000Y-61356000D03*
X150810000Y-61356000D03*
X150810000Y-60056000D03*
%TD*%
D10*
%TO.C,J10*%
X148336000Y-138933000D03*
D11*
X148336000Y-141473000D03*
%TD*%
D12*
%TO.C,REF\u002A\u002A*%
X110800000Y-79200000D03*
%TD*%
D17*
%TO.C,C_puff2*%
X106807000Y-75324000D03*
X106807000Y-73774000D03*
%TD*%
D10*
%TO.C,J9*%
X138684000Y-63373000D03*
D11*
X138684000Y-65913000D03*
X138684000Y-68453000D03*
X138684000Y-70993000D03*
X138684000Y-73533000D03*
X138684000Y-76073000D03*
%TD*%
D10*
%TO.C,J8*%
X178435000Y-104394000D03*
D11*
X178435000Y-106934000D03*
X178435000Y-109474000D03*
X178435000Y-112014000D03*
%TD*%
D10*
%TO.C,J14*%
X160401000Y-75311000D03*
D11*
X162941000Y-75311000D03*
X165481000Y-75311000D03*
X168021000Y-75311000D03*
X170561000Y-75311000D03*
X173101000Y-75311000D03*
%TD*%
D10*
%TO.C,J16*%
X170434000Y-82042000D03*
D11*
X170434000Y-84582000D03*
X170434000Y-87122000D03*
X170434000Y-89662000D03*
%TD*%
D14*
%TO.C,R2*%
X148209000Y-66722000D03*
X148209000Y-64897000D03*
%TD*%
D18*
%TO.C,A1*%
X99515400Y-95419000D03*
X99515400Y-97419000D03*
X99515400Y-99419000D03*
X99515400Y-101419000D03*
X99515400Y-103419000D03*
X99515400Y-105419000D03*
X99515400Y-107419000D03*
X99515400Y-109419000D03*
X99515400Y-111419000D03*
X99515400Y-113419000D03*
X121515400Y-113419000D03*
X121515400Y-111419000D03*
X121515400Y-109419000D03*
X121515400Y-107419000D03*
X121515400Y-105419000D03*
X121515400Y-103419000D03*
X121515400Y-101419000D03*
X121515400Y-99419000D03*
X121515400Y-97419000D03*
X121515400Y-95419000D03*
%TD*%
D10*
%TO.C,J13*%
X138699000Y-137414000D03*
D11*
X141239000Y-137414000D03*
X143779000Y-137414000D03*
%TD*%
D19*
%TO.C,Module1*%
X160636000Y-82302000D03*
X127636000Y-130302000D03*
X127636000Y-82302000D03*
X160636000Y-130302000D03*
D20*
X162636000Y-113602000D03*
X159556000Y-113602000D03*
X162636000Y-113202000D03*
X159556000Y-113202000D03*
X162636000Y-112802000D03*
X159556000Y-112802000D03*
X162636000Y-112402000D03*
X159556000Y-112402000D03*
X162636000Y-112002000D03*
X159556000Y-112002000D03*
X162636000Y-111602000D03*
X159556000Y-111602000D03*
X162636000Y-111202000D03*
X159556000Y-111202000D03*
X162636000Y-110802000D03*
X159556000Y-110802000D03*
X162636000Y-110402000D03*
X159556000Y-110402000D03*
X162636000Y-110002000D03*
X159556000Y-110002000D03*
X162636000Y-109602000D03*
X159556000Y-109602000D03*
X162636000Y-109202000D03*
X159556000Y-109202000D03*
X162636000Y-108802000D03*
X159556000Y-108802000D03*
X162636000Y-108402000D03*
X159556000Y-108402000D03*
X162636000Y-108002000D03*
X159556000Y-108002000D03*
X162636000Y-107602000D03*
X159556000Y-107602000D03*
X162636000Y-107202000D03*
X159556000Y-107202000D03*
X162636000Y-106802000D03*
X159556000Y-106802000D03*
X162636000Y-106402000D03*
X159556000Y-106402000D03*
X162636000Y-106002000D03*
X159556000Y-106002000D03*
X162636000Y-105602000D03*
X159556000Y-105602000D03*
X162636000Y-105202000D03*
X159556000Y-105202000D03*
X162636000Y-104802000D03*
X159556000Y-104802000D03*
X162636000Y-104402000D03*
X159556000Y-104402000D03*
X162636000Y-104002000D03*
X159556000Y-104002000D03*
X162636000Y-103602000D03*
X159556000Y-103602000D03*
X162636000Y-103202000D03*
X159556000Y-103202000D03*
X162636000Y-102802000D03*
X159556000Y-102802000D03*
X162636000Y-102402000D03*
X159556000Y-102402000D03*
X162636000Y-102002000D03*
X159556000Y-102002000D03*
X162636000Y-101602000D03*
X159556000Y-101602000D03*
X162636000Y-101202000D03*
X159556000Y-101202000D03*
X162636000Y-100802000D03*
X159556000Y-100802000D03*
X162636000Y-100402000D03*
X159556000Y-100402000D03*
X162636000Y-100002000D03*
X159556000Y-100002000D03*
X162636000Y-99602000D03*
X159556000Y-99602000D03*
X162636000Y-99202000D03*
X159556000Y-99202000D03*
X162636000Y-98802000D03*
X159556000Y-98802000D03*
X162636000Y-98402000D03*
X159556000Y-98402000D03*
X162636000Y-98002000D03*
X159556000Y-98002000D03*
X162636000Y-97602000D03*
X159556000Y-97602000D03*
X162636000Y-97202000D03*
X159556000Y-97202000D03*
X162636000Y-96802000D03*
X159556000Y-96802000D03*
X162636000Y-96402000D03*
X159556000Y-96402000D03*
X162636000Y-96002000D03*
X159556000Y-96002000D03*
X162636000Y-95602000D03*
X159556000Y-95602000D03*
X162636000Y-95202000D03*
X159556000Y-95202000D03*
X162636000Y-94802000D03*
X159556000Y-94802000D03*
X162636000Y-94402000D03*
X159556000Y-94402000D03*
X162636000Y-94002000D03*
X159556000Y-94002000D03*
X128716000Y-113602000D03*
X125636000Y-113602000D03*
X128716000Y-113202000D03*
X125636000Y-113202000D03*
X128716000Y-112802000D03*
X125636000Y-112802000D03*
X128716000Y-112402000D03*
X125636000Y-112402000D03*
X128716000Y-112002000D03*
X125636000Y-112002000D03*
X128716000Y-111602000D03*
X125636000Y-111602000D03*
X128716000Y-111202000D03*
X125636000Y-111202000D03*
X128716000Y-110802000D03*
X125636000Y-110802000D03*
X128716000Y-110402000D03*
X125636000Y-110402000D03*
X128716000Y-110002000D03*
X125636000Y-110002000D03*
X128716000Y-109602000D03*
X125636000Y-109602000D03*
X128716000Y-109202000D03*
X125636000Y-109202000D03*
X128716000Y-108802000D03*
X125636000Y-108802000D03*
X128716000Y-108402000D03*
X125636000Y-108402000D03*
X128716000Y-108002000D03*
X125636000Y-108002000D03*
X128716000Y-107602000D03*
X125636000Y-107602000D03*
X128716000Y-107202000D03*
X125636000Y-107202000D03*
X128716000Y-106802000D03*
X125636000Y-106802000D03*
X128716000Y-106402000D03*
X125636000Y-106402000D03*
X128716000Y-106002000D03*
X125636000Y-106002000D03*
X128716000Y-105602000D03*
X125636000Y-105602000D03*
X128716000Y-105202000D03*
X125636000Y-105202000D03*
X128716000Y-104802000D03*
X125636000Y-104802000D03*
X128716000Y-104402000D03*
X125636000Y-104402000D03*
X128716000Y-104002000D03*
X125636000Y-104002000D03*
X128716000Y-103602000D03*
X125636000Y-103602000D03*
X128716000Y-103202000D03*
X125636000Y-103202000D03*
X128716000Y-102802000D03*
X125636000Y-102802000D03*
X128716000Y-102402000D03*
X125636000Y-102402000D03*
X128716000Y-102002000D03*
X125636000Y-102002000D03*
X128716000Y-101602000D03*
X125636000Y-101602000D03*
X128716000Y-101202000D03*
X125636000Y-101202000D03*
X128716000Y-100802000D03*
X125636000Y-100802000D03*
X128716000Y-100402000D03*
X125636000Y-100402000D03*
X128716000Y-100002000D03*
X125636000Y-100002000D03*
X128716000Y-99602000D03*
X125636000Y-99602000D03*
X128716000Y-99202000D03*
X125636000Y-99202000D03*
X128716000Y-98802000D03*
X125636000Y-98802000D03*
X128716000Y-98402000D03*
X125636000Y-98402000D03*
X128716000Y-98002000D03*
X125636000Y-98002000D03*
X128716000Y-97602000D03*
X125636000Y-97602000D03*
X128716000Y-97202000D03*
X125636000Y-97202000D03*
X128716000Y-96802000D03*
X125636000Y-96802000D03*
X128716000Y-96402000D03*
X125636000Y-96402000D03*
X128716000Y-96002000D03*
X125636000Y-96002000D03*
X128716000Y-95602000D03*
X125636000Y-95602000D03*
X128716000Y-95202000D03*
X125636000Y-95202000D03*
X128716000Y-94802000D03*
X125636000Y-94802000D03*
X128716000Y-94402000D03*
X125636000Y-94402000D03*
X128716000Y-94002000D03*
X125636000Y-94002000D03*
%TD*%
D10*
%TO.C,J4*%
X115062000Y-121158000D03*
D11*
X115062000Y-123698000D03*
%TD*%
D10*
%TO.C,J2*%
X167132000Y-125593000D03*
D11*
X167132000Y-123053000D03*
X167132000Y-120513000D03*
X167132000Y-117973000D03*
%TD*%
D10*
%TO.C,J3*%
X152908000Y-136398000D03*
D11*
X152908000Y-138938000D03*
X152908000Y-141478000D03*
%TD*%
D10*
%TO.C,J19*%
X121412000Y-121158000D03*
D11*
X121412000Y-123698000D03*
%TD*%
D10*
%TO.C,J17*%
X108458000Y-121153000D03*
D11*
X108458000Y-123693000D03*
%TD*%
M02*
