%TF.GenerationSoftware,KiCad,Pcbnew,(6.0.5)*%
%TF.CreationDate,2023-03-12T20:27:37+02:00*%
%TF.ProjectId,rpi-cm4-base-carrier-rocket,7270692d-636d-4342-9d62-6173652d6361,v01*%
%TF.SameCoordinates,Original*%
%TF.FileFunction,AssemblyDrawing,Bot*%
%FSLAX46Y46*%
G04 Gerber Fmt 4.6, Leading zero omitted, Abs format (unit mm)*
G04 Created by KiCad (PCBNEW (6.0.5)) date 2023-03-12 20:27:37*
%MOMM*%
%LPD*%
G01*
G04 APERTURE LIST*
%ADD10C,0.150000*%
%ADD11C,0.100000*%
G04 APERTURE END LIST*
D10*
%TO.C,J4*%
X114514380Y-122094666D02*
X115228666Y-122094666D01*
X115371523Y-122047047D01*
X115466761Y-121951809D01*
X115514380Y-121808952D01*
X115514380Y-121713714D01*
X114847714Y-122999428D02*
X115514380Y-122999428D01*
X114466761Y-122761333D02*
X115181047Y-122523238D01*
X115181047Y-123142285D01*
%TO.C,J2*%
X166584380Y-121449666D02*
X167298666Y-121449666D01*
X167441523Y-121402047D01*
X167536761Y-121306809D01*
X167584380Y-121163952D01*
X167584380Y-121068714D01*
X166679619Y-121878238D02*
X166632000Y-121925857D01*
X166584380Y-122021095D01*
X166584380Y-122259190D01*
X166632000Y-122354428D01*
X166679619Y-122402047D01*
X166774857Y-122449666D01*
X166870095Y-122449666D01*
X167012952Y-122402047D01*
X167584380Y-121830619D01*
X167584380Y-122449666D01*
%TO.C,J3*%
X152360380Y-138604666D02*
X153074666Y-138604666D01*
X153217523Y-138557047D01*
X153312761Y-138461809D01*
X153360380Y-138318952D01*
X153360380Y-138223714D01*
X152360380Y-138985619D02*
X152360380Y-139604666D01*
X152741333Y-139271333D01*
X152741333Y-139414190D01*
X152788952Y-139509428D01*
X152836571Y-139557047D01*
X152931809Y-139604666D01*
X153169904Y-139604666D01*
X153265142Y-139557047D01*
X153312761Y-139509428D01*
X153360380Y-139414190D01*
X153360380Y-139128476D01*
X153312761Y-139033238D01*
X153265142Y-138985619D01*
%TO.C,J19*%
X120864380Y-121618476D02*
X121578666Y-121618476D01*
X121721523Y-121570857D01*
X121816761Y-121475619D01*
X121864380Y-121332761D01*
X121864380Y-121237523D01*
X121864380Y-122618476D02*
X121864380Y-122047047D01*
X121864380Y-122332761D02*
X120864380Y-122332761D01*
X121007238Y-122237523D01*
X121102476Y-122142285D01*
X121150095Y-122047047D01*
X121864380Y-123094666D02*
X121864380Y-123285142D01*
X121816761Y-123380380D01*
X121769142Y-123428000D01*
X121626285Y-123523238D01*
X121435809Y-123570857D01*
X121054857Y-123570857D01*
X120959619Y-123523238D01*
X120912000Y-123475619D01*
X120864380Y-123380380D01*
X120864380Y-123189904D01*
X120912000Y-123094666D01*
X120959619Y-123047047D01*
X121054857Y-122999428D01*
X121292952Y-122999428D01*
X121388190Y-123047047D01*
X121435809Y-123094666D01*
X121483428Y-123189904D01*
X121483428Y-123380380D01*
X121435809Y-123475619D01*
X121388190Y-123523238D01*
X121292952Y-123570857D01*
%TO.C,J17*%
X107910380Y-121613476D02*
X108624666Y-121613476D01*
X108767523Y-121565857D01*
X108862761Y-121470619D01*
X108910380Y-121327761D01*
X108910380Y-121232523D01*
X108910380Y-122613476D02*
X108910380Y-122042047D01*
X108910380Y-122327761D02*
X107910380Y-122327761D01*
X108053238Y-122232523D01*
X108148476Y-122137285D01*
X108196095Y-122042047D01*
X107910380Y-122946809D02*
X107910380Y-123613476D01*
X108910380Y-123184904D01*
D11*
%TO.C,J4*%
X116332000Y-124968000D02*
X116332000Y-120523000D01*
X113792000Y-119888000D02*
X113792000Y-124968000D01*
X115697000Y-119888000D02*
X113792000Y-119888000D01*
X113792000Y-124968000D02*
X116332000Y-124968000D01*
X116332000Y-120523000D02*
X115697000Y-119888000D01*
%TO.C,J2*%
X168402000Y-116703000D02*
X165862000Y-116703000D01*
X168402000Y-126863000D02*
X168402000Y-116703000D01*
X165862000Y-126228000D02*
X166497000Y-126863000D01*
X166497000Y-126863000D02*
X168402000Y-126863000D01*
X165862000Y-116703000D02*
X165862000Y-126228000D01*
%TO.C,J3*%
X151638000Y-135128000D02*
X151638000Y-142748000D01*
X153543000Y-135128000D02*
X151638000Y-135128000D01*
X151638000Y-142748000D02*
X154178000Y-142748000D01*
X154178000Y-142748000D02*
X154178000Y-135763000D01*
X154178000Y-135763000D02*
X153543000Y-135128000D01*
%TO.C,J19*%
X122047000Y-119888000D02*
X120142000Y-119888000D01*
X122682000Y-120523000D02*
X122047000Y-119888000D01*
X122682000Y-124968000D02*
X122682000Y-120523000D01*
X120142000Y-124968000D02*
X122682000Y-124968000D01*
X120142000Y-119888000D02*
X120142000Y-124968000D01*
%TO.C,J17*%
X109728000Y-124963000D02*
X109728000Y-120518000D01*
X109093000Y-119883000D02*
X107188000Y-119883000D01*
X109728000Y-120518000D02*
X109093000Y-119883000D01*
X107188000Y-119883000D02*
X107188000Y-124963000D01*
X107188000Y-124963000D02*
X109728000Y-124963000D01*
%TD*%
M02*
