%TF.GenerationSoftware,KiCad,Pcbnew,(6.0.5)*%
%TF.CreationDate,2023-03-12T20:27:36+02:00*%
%TF.ProjectId,rpi-cm4-base-carrier-rocket,7270692d-636d-4342-9d62-6173652d6361,v01*%
%TF.SameCoordinates,Original*%
%TF.FileFunction,Soldermask,Bot*%
%TF.FilePolarity,Negative*%
%FSLAX46Y46*%
G04 Gerber Fmt 4.6, Leading zero omitted, Abs format (unit mm)*
G04 Created by KiCad (PCBNEW (6.0.5)) date 2023-03-12 20:27:36*
%MOMM*%
%LPD*%
G01*
G04 APERTURE LIST*
%ADD10R,1.700000X1.700000*%
%ADD11O,1.700000X1.700000*%
%ADD12C,1.700000*%
%ADD13C,6.100000*%
G04 APERTURE END LIST*
D10*
%TO.C,J12*%
X111379000Y-72898000D03*
D11*
X113919000Y-72898000D03*
X116459000Y-72898000D03*
X118999000Y-72898000D03*
X121539000Y-72898000D03*
X124079000Y-72898000D03*
%TD*%
D10*
%TO.C,J6*%
X134162800Y-63322200D03*
D11*
X134162800Y-65862200D03*
X134162800Y-68402200D03*
X134162800Y-70942200D03*
X134162800Y-73482200D03*
X134162800Y-76022200D03*
%TD*%
D10*
%TO.C,J1*%
X170434000Y-103632000D03*
D11*
X170434000Y-106172000D03*
X170434000Y-108712000D03*
X170434000Y-111252000D03*
X170434000Y-113792000D03*
%TD*%
D10*
%TO.C,J7*%
X129032000Y-142479000D03*
D11*
X129032000Y-139939000D03*
X129032000Y-137399000D03*
%TD*%
D10*
%TO.C,J5*%
X129336800Y-63322200D03*
D11*
X129336800Y-65862200D03*
X129336800Y-68402200D03*
X129336800Y-70942200D03*
X129336800Y-73482200D03*
X129336800Y-76022200D03*
%TD*%
D10*
%TO.C,J15*%
X108458000Y-128778000D03*
D11*
X110998000Y-128778000D03*
X113538000Y-128778000D03*
X116078000Y-128778000D03*
X118618000Y-128778000D03*
X121158000Y-128778000D03*
%TD*%
D10*
%TO.C,J11*%
X133604000Y-142479000D03*
D11*
X133604000Y-139939000D03*
X133604000Y-137399000D03*
%TD*%
D10*
%TO.C,J10*%
X148336000Y-138933000D03*
D11*
X148336000Y-141473000D03*
%TD*%
D10*
%TO.C,J9*%
X138684000Y-63373000D03*
D11*
X138684000Y-65913000D03*
X138684000Y-68453000D03*
X138684000Y-70993000D03*
X138684000Y-73533000D03*
X138684000Y-76073000D03*
%TD*%
D10*
%TO.C,J8*%
X178435000Y-104394000D03*
D11*
X178435000Y-106934000D03*
X178435000Y-109474000D03*
X178435000Y-112014000D03*
%TD*%
D10*
%TO.C,J14*%
X160401000Y-75311000D03*
D11*
X162941000Y-75311000D03*
X165481000Y-75311000D03*
X168021000Y-75311000D03*
X170561000Y-75311000D03*
X173101000Y-75311000D03*
%TD*%
D10*
%TO.C,J16*%
X170434000Y-82042000D03*
D11*
X170434000Y-84582000D03*
X170434000Y-87122000D03*
X170434000Y-89662000D03*
%TD*%
D12*
%TO.C,A1*%
X99515400Y-95419000D03*
X99515400Y-97419000D03*
X99515400Y-99419000D03*
X99515400Y-101419000D03*
X99515400Y-103419000D03*
X99515400Y-105419000D03*
X99515400Y-107419000D03*
X99515400Y-109419000D03*
X99515400Y-111419000D03*
X99515400Y-113419000D03*
X121515400Y-113419000D03*
X121515400Y-111419000D03*
X121515400Y-109419000D03*
X121515400Y-107419000D03*
X121515400Y-105419000D03*
X121515400Y-103419000D03*
X121515400Y-101419000D03*
X121515400Y-99419000D03*
X121515400Y-97419000D03*
X121515400Y-95419000D03*
%TD*%
D10*
%TO.C,J13*%
X138699000Y-137414000D03*
D11*
X141239000Y-137414000D03*
X143779000Y-137414000D03*
%TD*%
D13*
%TO.C,Module1*%
X160636000Y-82302000D03*
X127636000Y-130302000D03*
X127636000Y-82302000D03*
X160636000Y-130302000D03*
%TD*%
D10*
%TO.C,J4*%
X115062000Y-121158000D03*
D11*
X115062000Y-123698000D03*
%TD*%
D10*
%TO.C,J2*%
X167132000Y-125593000D03*
D11*
X167132000Y-123053000D03*
X167132000Y-120513000D03*
X167132000Y-117973000D03*
%TD*%
D10*
%TO.C,J3*%
X152908000Y-136398000D03*
D11*
X152908000Y-138938000D03*
X152908000Y-141478000D03*
%TD*%
D10*
%TO.C,J19*%
X121412000Y-121158000D03*
D11*
X121412000Y-123698000D03*
%TD*%
D10*
%TO.C,J17*%
X108458000Y-121153000D03*
D11*
X108458000Y-123693000D03*
%TD*%
M02*
