%TF.GenerationSoftware,KiCad,Pcbnew,(6.0.5)*%
%TF.CreationDate,2023-03-12T20:27:37+02:00*%
%TF.ProjectId,rpi-cm4-base-carrier-rocket,7270692d-636d-4342-9d62-6173652d6361,v01*%
%TF.SameCoordinates,Original*%
%TF.FileFunction,Other,User*%
%FSLAX46Y46*%
G04 Gerber Fmt 4.6, Leading zero omitted, Abs format (unit mm)*
G04 Created by KiCad (PCBNEW (6.0.5)) date 2023-03-12 20:27:37*
%MOMM*%
%LPD*%
G01*
G04 APERTURE LIST*
%ADD10C,0.050000*%
G04 APERTURE END LIST*
D10*
%TO.C,J4*%
X116862000Y-125508000D02*
X113262000Y-125508000D01*
X113262000Y-125508000D02*
X113262000Y-119358000D01*
X113262000Y-119358000D02*
X116862000Y-119358000D01*
X116862000Y-119358000D02*
X116862000Y-125508000D01*
%TO.C,J2*%
X165332000Y-116193000D02*
X168932000Y-116193000D01*
X168932000Y-116193000D02*
X168932000Y-127393000D01*
X165332000Y-127393000D02*
X165332000Y-116193000D01*
X168932000Y-127393000D02*
X165332000Y-127393000D01*
%TO.C,J3*%
X151108000Y-143248000D02*
X151108000Y-134598000D01*
X151108000Y-134598000D02*
X154708000Y-134598000D01*
X154708000Y-143248000D02*
X151108000Y-143248000D01*
X154708000Y-134598000D02*
X154708000Y-143248000D01*
%TO.C,J19*%
X119612000Y-125508000D02*
X119612000Y-119358000D01*
X123212000Y-119358000D02*
X123212000Y-125508000D01*
X123212000Y-125508000D02*
X119612000Y-125508000D01*
X119612000Y-119358000D02*
X123212000Y-119358000D01*
%TO.C,J17*%
X106658000Y-125503000D02*
X106658000Y-119353000D01*
X106658000Y-119353000D02*
X110258000Y-119353000D01*
X110258000Y-125503000D02*
X106658000Y-125503000D01*
X110258000Y-119353000D02*
X110258000Y-125503000D01*
%TD*%
M02*
