M48
; DRILL file {KiCad (6.0.5)} date Mon Mar 13 10:12:31 2023
; FORMAT={-:-/ absolute / inch / decimal}
; #@! TF.CreationDate,2023-03-13T10:12:31+02:00
; #@! TF.GenerationSoftware,Kicad,Pcbnew,(6.0.5)
; #@! TF.FileFunction,Plated,1,2,PTH
FMAT,2
INCH
; #@! TA.AperFunction,Plated,PTH,ViaDrill
T1C0.0100
; #@! TA.AperFunction,Plated,PTH,ComponentDrill
T2C0.0276
; #@! TA.AperFunction,Plated,PTH,ComponentDrill
T3C0.0394
; #@! TA.AperFunction,Plated,PTH,ViaDrill
T4C0.1220
%
G90
G05
T1
X4.13Y-4.83
X4.14Y-3.13
X4.335Y-2.755
X4.34Y-3.97
X4.37Y-5.24
X4.4Y-4.84
X4.66Y-4.9
X4.81Y-3.36
X4.89Y-3.79
X5.03Y-4.78
X5.2Y-2.3
X5.24Y-4.335
X5.28Y-3.26
X5.29Y-4.8
X5.325Y-4.1
X5.34Y-5.06
X5.37Y-5.74
X5.39Y-2.31
X5.4022Y-5.2322
X5.41Y-4.465
X5.42Y-5.28
X5.48Y-3.82
X5.53Y-4.59
X5.535Y-4.465
X5.565Y-3.24
X5.565Y-3.305
X5.565Y-3.365
X5.57Y-3.145
X5.58Y-3.07
X5.62Y-5.26
X5.63Y-3.415
X5.63Y-5.2
X5.635Y-4.19
X5.64Y-2.495
X5.685Y-3.035
X5.69Y-3.64
X5.69Y-4.2
X5.71Y-5.74
X5.72Y-3.415
X5.76Y-3.035
X5.79Y-4.1
X5.8Y-4.92
X5.805Y-3.415
X5.8189Y-2.4173
X5.845Y-3.035
X5.905Y-3.42
X5.935Y-4.0
X5.9449Y-2.915
X5.955Y-3.035
X5.99Y-3.42
X6.0Y-4.395
X6.02Y-4.33
X6.045Y-3.045
X6.045Y-4.07
X6.07Y-4.35
X6.08Y-3.42
X6.1Y-3.18
X6.1Y-3.24
X6.1Y-3.3
X6.105Y-3.37
X6.1132Y-4.2968
X6.1339Y-2.915
X6.15Y-4.05
X6.185Y-4.173
X6.19Y-4.235
X6.3Y-4.87
X6.32Y-3.534
X6.355Y-3.515
X6.4382Y-4.315
X6.4439Y-4.5098
X6.48Y-3.52
X6.5Y-3.695
X6.52Y-4.05
X6.53Y-4.4
X6.55Y-4.5
X6.56Y-4.26
X6.5668Y-3.33
X6.57Y-3.44
X6.6Y-3.12
X6.6Y-4.45
X6.61Y-3.95
X6.62Y-4.28
X6.68Y-3.79
X6.7Y-2.85
X6.7Y-5.1
X6.9Y-5.0
X6.975Y-3.73
X7.05Y-3.8
T2
X3.9179Y-3.7567
X3.9179Y-3.8354
X3.9179Y-3.9141
X3.9179Y-3.9929
X3.9179Y-4.0716
X3.9179Y-4.1504
X3.9179Y-4.2291
X3.9179Y-4.3078
X3.9179Y-4.3866
X3.9179Y-4.4653
X4.7841Y-3.7567
X4.7841Y-3.8354
X4.7841Y-3.9141
X4.7841Y-3.9929
X4.7841Y-4.0716
X4.7841Y-4.1504
X4.7841Y-4.2291
X4.7841Y-4.3078
X4.7841Y-4.3866
X4.7841Y-4.4653
T3
X4.27Y-4.7698
X4.27Y-4.8698
X4.27Y-5.07
X4.37Y-5.07
X4.385Y-2.87
X4.47Y-5.07
X4.485Y-2.87
X4.53Y-4.77
X4.53Y-4.87
X4.57Y-5.07
X4.585Y-2.87
X4.67Y-5.07
X4.685Y-2.87
X4.77Y-5.07
X4.78Y-4.77
X4.78Y-4.87
X4.785Y-2.87
X4.885Y-2.87
X5.08Y-5.4094
X5.08Y-5.5094
X5.08Y-5.6094
X5.092Y-2.493
X5.092Y-2.593
X5.092Y-2.693
X5.092Y-2.793
X5.092Y-2.893
X5.092Y-2.993
X5.26Y-5.4094
X5.26Y-5.5094
X5.26Y-5.6094
X5.282Y-2.493
X5.282Y-2.593
X5.282Y-2.693
X5.282Y-2.793
X5.282Y-2.893
X5.282Y-2.993
X5.46Y-2.495
X5.46Y-2.595
X5.46Y-2.695
X5.46Y-2.795
X5.46Y-2.895
X5.46Y-2.995
X5.4606Y-5.41
X5.5606Y-5.41
X5.6606Y-5.41
X5.84Y-5.4698
X5.84Y-5.5698
X6.02Y-5.37
X6.02Y-5.47
X6.02Y-5.57
X6.315Y-2.965
X6.415Y-2.965
X6.515Y-2.965
X6.58Y-4.6446
X6.58Y-4.7446
X6.58Y-4.8446
X6.58Y-4.9446
X6.615Y-2.965
X6.71Y-3.23
X6.71Y-3.33
X6.71Y-3.43
X6.71Y-3.53
X6.71Y-4.08
X6.71Y-4.18
X6.71Y-4.28
X6.71Y-4.38
X6.71Y-4.48
X6.715Y-2.965
X6.815Y-2.965
X7.025Y-4.11
X7.025Y-4.21
X7.025Y-4.31
X7.025Y-4.41
T4
X4.06Y-3.35
X4.06Y-4.67
X5.54Y-2.35
X5.54Y-5.67
X7.02Y-3.35
X7.02Y-4.67
T0
M30
